<svg width="43" height="34" viewBox="0 0 43 34" fill="none" xmlns="http://www.w3.org/2000/svg">
<path d="M37.3552 10.2952L31.7019 9.89037L32.219 2.15886L5.83708 0.269858C3.76422 0.121436 1.9519 1.73959 1.80971 3.86576L0.387832 25.1274L4.15668 25.3973C3.9421 28.6058 6.29402 31.3767 9.42216 31.6007C12.5503 31.8247 15.2486 29.4154 15.4632 26.2068L26.7697 27.0164C26.5552 30.225 28.9071 32.9959 32.0352 33.2198C35.1634 33.4438 37.8617 31.0346 38.0763 27.826L41.8451 28.0958L42.4914 18.4315L37.3552 10.2952ZM9.61605 28.7014C8.05198 28.5894 6.87602 27.2039 6.98331 25.5997C7.0906 23.9954 8.43977 22.7907 10.0038 22.9027C11.5679 23.0147 12.7439 24.4002 12.6366 26.0044C12.5293 27.6087 11.1801 28.8134 9.61605 28.7014ZM36.2191 13.127L39.5894 18.2237L31.1849 17.6219L31.5081 12.7897L36.2191 13.127ZM32.2291 30.3205C30.665 30.2085 29.4891 28.8231 29.5964 27.2188C29.7037 25.6145 31.0528 24.4099 32.6169 24.5219C34.181 24.6339 35.3569 26.0193 35.2496 27.6236C35.1424 29.2279 33.7932 30.4325 32.2291 30.3205Z" fill="black"/>
</svg>
